<svg width="888" height="1577" viewBox="0 0 888 1577" fill="none" xmlns="http://www.w3.org/2000/svg">
<g clip-path="url(#clip0_2001_69)">
<rect width="887.821" height="216.335" transform="translate(0.0893555)" fill="#EDEDED"/>
<path d="M240.99 144.627C244.151 144.627 246.357 145.534 247.608 147.349C248.891 149.132 249.533 152.277 249.533 156.783C249.533 161.288 248.735 164.464 247.139 166.31C245.574 168.125 242.68 169.033 238.456 169.033C237.142 169.033 234.967 168.907 231.932 168.657L230.618 168.516V134.864H234.091V146.269C236.469 145.174 238.769 144.627 240.99 144.627ZM238.409 165.888C241.475 165.888 243.494 165.2 244.464 163.823C245.465 162.415 245.965 160.052 245.965 156.736C245.965 153.419 245.574 151.104 244.792 149.789C244.01 148.444 242.617 147.771 240.615 147.771C238.8 147.771 236.938 148.115 235.03 148.804L234.091 149.132V165.653C236.125 165.81 237.564 165.888 238.409 165.888Z" fill="#333333"/>
<path d="M223.673 152.183V164.198C223.767 165.356 224.674 166.044 226.395 166.264L226.254 169.033C223.782 169.033 221.921 168.407 220.669 167.155C217.853 168.407 215.037 169.033 212.221 169.033C210.062 169.033 208.419 168.423 207.293 167.202C206.166 165.982 205.603 164.23 205.603 161.946C205.603 159.661 206.182 157.987 207.34 156.924C208.497 155.828 210.312 155.156 212.784 154.905L220.153 154.201V152.183C220.153 150.587 219.809 149.445 219.12 148.757C218.432 148.069 217.493 147.724 216.304 147.724C213.801 147.724 211.204 147.881 208.513 148.194L207.058 148.335L206.917 145.659C210.359 144.971 213.41 144.627 216.069 144.627C218.729 144.627 220.653 145.237 221.842 146.457C223.063 147.677 223.673 149.586 223.673 152.183ZM209.217 161.758C209.217 164.636 210.406 166.076 212.784 166.076C214.912 166.076 217.008 165.716 219.073 164.996L220.153 164.621V156.877L213.206 157.534C211.798 157.659 210.781 158.066 210.156 158.754C209.53 159.442 209.217 160.444 209.217 161.758Z" fill="#333333"/>
<path d="M196.523 168.563V134.864H200.044V168.563H196.523Z" fill="#333333"/>
<path d="M185.878 168.563V163.213H189.727V168.563H185.878Z" fill="#333333"/>
<path fill-rule="evenodd" clip-rule="evenodd" d="M174.821 41.6039H41.6933V174.731H174.821V41.6039ZM176.425 40V176.335H40.0894V40H176.425Z" fill="#333333"/>
<path d="M166.046 167.649H157.008L148.805 157.481L152.957 152.761L166.046 167.649Z" fill="#333333"/>
<path d="M165.881 134.832L137.171 167.649H128.514L157.224 134.832H165.881Z" fill="#333333"/>
<path d="M145.783 144.45L141.642 149.165L129.042 134.832H137.705L145.783 144.45Z" fill="#333333"/>
<path d="M127.492 162.02V167.649H93.7031V134.832H127.435V140.462H100.81V148.625H122.629V153.959H100.81V162.02H127.492Z" fill="#333333"/>
<path d="M90.8739 134.832V167.649H83.7674L58.0455 143.814V167.649H50.9333V134.832H58.0455L83.7674 158.862V134.832H90.8739Z" fill="#333333"/>
<path d="M503.072 144.335H506.924L509.768 158.987H510.488L513.908 144.695H517.94L521.36 158.987H522.08L524.888 144.335H528.776L524.96 162.335H518.732L515.924 149.987L513.116 162.335H506.888L503.072 144.335ZM544.925 159.095L545.933 158.987L546.005 161.903C543.269 162.455 540.845 162.731 538.733 162.731C536.069 162.731 534.149 161.999 532.973 160.535C531.821 159.071 531.245 156.731 531.245 153.515C531.245 147.131 533.849 143.939 539.057 143.939C544.097 143.939 546.617 146.687 546.617 152.183L546.365 154.991H535.205C535.229 156.479 535.553 157.571 536.177 158.267C536.801 158.963 537.965 159.311 539.669 159.311C541.373 159.311 543.125 159.239 544.925 159.095ZM542.765 151.967C542.765 150.191 542.477 148.955 541.901 148.259C541.349 147.539 540.401 147.179 539.057 147.179C537.713 147.179 536.729 147.551 536.105 148.295C535.505 149.039 535.193 150.263 535.169 151.967H542.765ZM562.224 162.335H558.3V144.335H562.188V145.451C563.892 144.443 565.452 143.939 566.868 143.939C568.956 143.939 570.48 144.527 571.44 145.703C573.624 144.527 575.796 143.939 577.956 143.939C580.116 143.939 581.64 144.611 582.528 145.955C583.416 147.275 583.86 149.519 583.86 152.687V162.335H579.972V152.795C579.972 150.851 579.768 149.471 579.36 148.655C578.976 147.839 578.16 147.431 576.912 147.431C575.832 147.431 574.668 147.671 573.42 148.151L572.808 148.403C573 148.883 573.096 150.419 573.096 153.011V162.335H569.208V153.083C569.208 150.947 569.016 149.471 568.632 148.655C568.248 147.839 567.408 147.431 566.112 147.431C564.912 147.431 563.796 147.671 562.764 148.151L562.224 148.367V162.335ZM601.784 149.879V158.087C601.808 158.615 601.94 159.011 602.18 159.275C602.444 159.515 602.84 159.671 603.368 159.743L603.26 162.731C601.196 162.731 599.6 162.287 598.472 161.399C596.552 162.287 594.62 162.731 592.676 162.731C589.1 162.731 587.312 160.823 587.312 157.007C587.312 155.183 587.792 153.863 588.752 153.047C589.736 152.231 591.236 151.739 593.252 151.571L597.896 151.175V149.879C597.896 148.919 597.68 148.247 597.248 147.863C596.84 147.479 596.228 147.287 595.412 147.287C593.876 147.287 591.956 147.383 589.652 147.575L588.5 147.647L588.356 144.875C590.972 144.251 593.372 143.939 595.556 143.939C597.764 143.939 599.348 144.419 600.308 145.379C601.292 146.315 601.784 147.815 601.784 149.879ZM593.72 154.343C592.064 154.487 591.236 155.387 591.236 157.043C591.236 158.699 591.968 159.527 593.432 159.527C594.632 159.527 595.904 159.335 597.248 158.951L597.896 158.735V153.947L593.72 154.343ZM610.634 162.335H606.71V136.847H610.634V151.571L612.866 151.355L617.114 144.335H621.506L616.322 152.759L621.794 162.335H617.366L612.974 154.739L610.634 154.991V162.335ZM637.105 159.095L638.113 158.987L638.185 161.903C635.449 162.455 633.025 162.731 630.913 162.731C628.249 162.731 626.329 161.999 625.153 160.535C624.001 159.071 623.425 156.731 623.425 153.515C623.425 147.131 626.029 143.939 631.237 143.939C636.277 143.939 638.797 146.687 638.797 152.183L638.545 154.991H627.385C627.409 156.479 627.733 157.571 628.357 158.267C628.981 158.963 630.145 159.311 631.849 159.311C633.553 159.311 635.305 159.239 637.105 159.095ZM634.945 151.967C634.945 150.191 634.657 148.955 634.081 148.259C633.529 147.539 632.581 147.179 631.237 147.179C629.893 147.179 628.909 147.551 628.285 148.295C627.685 149.039 627.373 150.263 627.349 151.967H634.945ZM660.164 147.683H655.196V155.603C655.196 157.067 655.304 158.039 655.52 158.519C655.736 158.999 656.288 159.239 657.176 159.239L660.128 159.131L660.308 162.263C658.7 162.575 657.476 162.731 656.636 162.731C654.596 162.731 653.192 162.263 652.424 161.327C651.68 160.391 651.308 158.627 651.308 156.035V147.683H649.004V144.335H651.308V139.115H655.196V144.335H660.164V147.683ZM676.198 159.095L677.206 158.987L677.278 161.903C674.542 162.455 672.118 162.731 670.006 162.731C667.342 162.731 665.422 161.999 664.246 160.535C663.094 159.071 662.518 156.731 662.518 153.515C662.518 147.131 665.122 143.939 670.33 143.939C675.37 143.939 677.89 146.687 677.89 152.183L677.638 154.991H666.478C666.502 156.479 666.826 157.571 667.45 158.267C668.074 158.963 669.238 159.311 670.942 159.311C672.646 159.311 674.398 159.239 676.198 159.095ZM674.038 151.967C674.038 150.191 673.75 148.955 673.174 148.259C672.622 147.539 671.674 147.179 670.33 147.179C668.986 147.179 668.002 147.551 667.378 148.295C666.778 149.039 666.466 150.263 666.442 151.967H674.038ZM688.396 143.939C689.668 143.939 691.168 144.107 692.896 144.443L693.796 144.623L693.652 147.719C691.756 147.527 690.352 147.431 689.44 147.431C687.616 147.431 686.392 147.839 685.768 148.655C685.144 149.471 684.832 151.007 684.832 153.263C684.832 155.519 685.132 157.079 685.732 157.943C686.332 158.807 687.58 159.239 689.476 159.239L693.688 158.951L693.796 162.083C691.372 162.515 689.548 162.731 688.324 162.731C685.588 162.731 683.656 161.999 682.528 160.535C681.424 159.047 680.872 156.623 680.872 153.263C680.872 149.903 681.46 147.515 682.636 146.099C683.812 144.659 685.732 143.939 688.396 143.939ZM701.513 162.335H697.589V136.847H701.513V145.271C703.289 144.383 704.933 143.939 706.445 143.939C708.845 143.939 710.477 144.623 711.341 145.991C712.229 147.335 712.673 149.567 712.673 152.687V162.335H708.749V152.795C708.749 150.851 708.545 149.471 708.137 148.655C707.729 147.839 706.865 147.431 705.545 147.431C704.393 147.431 703.241 147.623 702.089 148.007L701.513 148.223V162.335ZM737.644 148.043C734.812 147.659 732.76 147.467 731.488 147.467C730.216 147.467 729.328 147.623 728.824 147.935C728.344 148.223 728.104 148.691 728.104 149.339C728.104 149.987 728.368 150.443 728.896 150.707C729.448 150.971 730.72 151.283 732.712 151.643C734.728 151.979 736.156 152.519 736.996 153.263C737.836 154.007 738.256 155.327 738.256 157.223C738.256 159.119 737.644 160.511 736.42 161.399C735.22 162.287 733.456 162.731 731.128 162.731C729.664 162.731 727.816 162.527 725.584 162.119L724.468 161.939L724.612 158.663C727.492 159.047 729.568 159.239 730.84 159.239C732.112 159.239 733.012 159.083 733.54 158.771C734.092 158.459 734.368 157.943 734.368 157.223C734.368 156.503 734.104 156.011 733.576 155.747C733.072 155.459 731.836 155.159 729.868 154.847C727.924 154.511 726.496 153.995 725.584 153.299C724.672 152.603 724.216 151.331 724.216 149.483C724.216 147.635 724.84 146.255 726.088 145.343C727.36 144.431 728.98 143.975 730.948 143.975C732.484 143.975 734.368 144.167 736.6 144.551L737.716 144.767L737.644 148.043ZM742.027 162.335V144.335H745.951V162.335H742.027ZM742.027 141.275V137.135H745.951V141.275H742.027ZM754.634 162.335H750.71V144.335H754.598V145.451C756.302 144.443 757.862 143.939 759.278 143.939C761.366 143.939 762.89 144.527 763.85 145.703C766.034 144.527 768.206 143.939 770.366 143.939C772.526 143.939 774.05 144.611 774.938 145.955C775.826 147.275 776.27 149.519 776.27 152.687V162.335H772.382V152.795C772.382 150.851 772.178 149.471 771.77 148.655C771.386 147.839 770.57 147.431 769.322 147.431C768.242 147.431 767.078 147.671 765.83 148.151L765.218 148.403C765.41 148.883 765.506 150.419 765.506 153.011V162.335H761.618V153.083C761.618 150.947 761.426 149.471 761.042 148.655C760.658 147.839 759.818 147.431 758.522 147.431C757.322 147.431 756.206 147.671 755.174 148.151L754.634 148.367V162.335ZM780.875 170.075V144.335H784.763V145.451C786.419 144.443 787.967 143.939 789.407 143.939C791.783 143.939 793.523 144.671 794.627 146.135C795.731 147.575 796.283 150.011 796.283 153.443C796.283 156.851 795.647 159.251 794.375 160.643C793.127 162.035 791.075 162.731 788.219 162.731C787.235 162.731 786.095 162.623 784.799 162.407V170.075H780.875ZM788.723 147.431C787.595 147.431 786.467 147.683 785.339 148.187L784.799 148.439V159.059C785.759 159.251 786.815 159.347 787.967 159.347C789.599 159.347 790.727 158.879 791.351 157.943C791.975 157.007 792.287 155.411 792.287 153.155C792.287 149.339 791.099 147.431 788.723 147.431ZM800.426 162.335V136.847H804.35V162.335H800.426ZM822.132 159.095L823.14 158.987L823.212 161.903C820.476 162.455 818.052 162.731 815.94 162.731C813.276 162.731 811.356 161.999 810.18 160.535C809.028 159.071 808.452 156.731 808.452 153.515C808.452 147.131 811.056 143.939 816.264 143.939C821.304 143.939 823.824 146.687 823.824 152.183L823.572 154.991H812.412C812.436 156.479 812.76 157.571 813.384 158.267C814.008 158.963 815.172 159.311 816.876 159.311C818.58 159.311 820.332 159.239 822.132 159.095ZM819.972 151.967C819.972 150.191 819.684 148.955 819.108 148.259C818.556 147.539 817.608 147.179 816.264 147.179C814.92 147.179 813.936 147.551 813.312 148.295C812.712 149.039 812.4 150.263 812.376 151.967H819.972ZM828.785 165.251H844.193V168.599H828.785V165.251Z" fill="#393939"/>
<rect width="887" height="98" transform="translate(0.5 1478.89)" fill="#EDEDED"/>
<path d="M272.161 1523.39H276.013L278.857 1538.04H279.577L282.997 1523.75H287.029L290.449 1538.04H291.169L293.977 1523.39H297.865L294.049 1541.39H287.821L285.013 1529.04L282.205 1541.39H275.977L272.161 1523.39ZM314.014 1538.15L315.022 1538.04L315.094 1540.96C312.358 1541.51 309.934 1541.78 307.822 1541.78C305.158 1541.78 303.238 1541.05 302.062 1539.59C300.91 1538.12 300.334 1535.78 300.334 1532.57C300.334 1526.18 302.938 1522.99 308.146 1522.99C313.186 1522.99 315.706 1525.74 315.706 1531.24L315.454 1534.04H304.294C304.318 1535.53 304.642 1536.62 305.266 1537.32C305.89 1538.02 307.054 1538.36 308.758 1538.36C310.462 1538.36 312.214 1538.29 314.014 1538.15ZM311.854 1531.02C311.854 1529.24 311.566 1528.01 310.99 1527.31C310.438 1526.59 309.49 1526.23 308.146 1526.23C306.802 1526.23 305.818 1526.6 305.194 1527.35C304.594 1528.09 304.282 1529.32 304.258 1531.02H311.854ZM331.314 1541.39H327.39V1523.39H331.278V1524.5C332.982 1523.5 334.542 1522.99 335.958 1522.99C338.046 1522.99 339.57 1523.58 340.53 1524.76C342.714 1523.58 344.886 1522.99 347.046 1522.99C349.206 1522.99 350.73 1523.66 351.618 1525.01C352.506 1526.33 352.95 1528.57 352.95 1531.74V1541.39H349.062V1531.85C349.062 1529.9 348.858 1528.52 348.45 1527.71C348.066 1526.89 347.25 1526.48 346.002 1526.48C344.922 1526.48 343.758 1526.72 342.51 1527.2L341.898 1527.46C342.09 1527.94 342.186 1529.47 342.186 1532.06V1541.39H338.298V1532.14C338.298 1530 338.106 1528.52 337.722 1527.71C337.338 1526.89 336.498 1526.48 335.202 1526.48C334.002 1526.48 332.886 1526.72 331.854 1527.2L331.314 1527.42V1541.39ZM370.874 1528.93V1537.14C370.898 1537.67 371.03 1538.06 371.27 1538.33C371.534 1538.57 371.93 1538.72 372.458 1538.8L372.35 1541.78C370.286 1541.78 368.69 1541.34 367.562 1540.45C365.642 1541.34 363.71 1541.78 361.766 1541.78C358.19 1541.78 356.402 1539.88 356.402 1536.06C356.402 1534.24 356.882 1532.92 357.842 1532.1C358.826 1531.28 360.326 1530.79 362.342 1530.62L366.986 1530.23V1528.93C366.986 1527.97 366.77 1527.3 366.338 1526.92C365.93 1526.53 365.318 1526.34 364.502 1526.34C362.966 1526.34 361.046 1526.44 358.742 1526.63L357.59 1526.7L357.446 1523.93C360.062 1523.3 362.462 1522.99 364.646 1522.99C366.854 1522.99 368.438 1523.47 369.398 1524.43C370.382 1525.37 370.874 1526.87 370.874 1528.93ZM362.81 1533.4C361.154 1533.54 360.326 1534.44 360.326 1536.1C360.326 1537.75 361.058 1538.58 362.522 1538.58C363.722 1538.58 364.994 1538.39 366.338 1538L366.986 1537.79V1533L362.81 1533.4ZM379.724 1541.39H375.8V1515.9H379.724V1530.62L381.956 1530.41L386.204 1523.39H390.596L385.412 1531.81L390.884 1541.39H386.456L382.064 1533.79L379.724 1534.04V1541.39ZM406.194 1538.15L407.202 1538.04L407.274 1540.96C404.538 1541.51 402.114 1541.78 400.002 1541.78C397.338 1541.78 395.418 1541.05 394.242 1539.59C393.09 1538.12 392.514 1535.78 392.514 1532.57C392.514 1526.18 395.118 1522.99 400.326 1522.99C405.366 1522.99 407.886 1525.74 407.886 1531.24L407.634 1534.04H396.474C396.498 1535.53 396.822 1536.62 397.446 1537.32C398.07 1538.02 399.234 1538.36 400.938 1538.36C402.642 1538.36 404.394 1538.29 406.194 1538.15ZM404.034 1531.02C404.034 1529.24 403.746 1528.01 403.17 1527.31C402.618 1526.59 401.67 1526.23 400.326 1526.23C398.982 1526.23 397.998 1526.6 397.374 1527.35C396.774 1528.09 396.462 1529.32 396.438 1531.02H404.034ZM429.253 1526.74H424.285V1534.66C424.285 1536.12 424.393 1537.09 424.609 1537.57C424.825 1538.05 425.377 1538.29 426.265 1538.29L429.217 1538.18L429.397 1541.32C427.789 1541.63 426.565 1541.78 425.725 1541.78C423.685 1541.78 422.281 1541.32 421.513 1540.38C420.769 1539.44 420.397 1537.68 420.397 1535.09V1526.74H418.093V1523.39H420.397V1518.17H424.285V1523.39H429.253V1526.74ZM445.288 1538.15L446.296 1538.04L446.368 1540.96C443.632 1541.51 441.208 1541.78 439.096 1541.78C436.432 1541.78 434.512 1541.05 433.336 1539.59C432.184 1538.12 431.608 1535.78 431.608 1532.57C431.608 1526.18 434.212 1522.99 439.42 1522.99C444.46 1522.99 446.98 1525.74 446.98 1531.24L446.728 1534.04H435.568C435.592 1535.53 435.916 1536.62 436.54 1537.32C437.164 1538.02 438.328 1538.36 440.032 1538.36C441.736 1538.36 443.488 1538.29 445.288 1538.15ZM443.128 1531.02C443.128 1529.24 442.84 1528.01 442.264 1527.31C441.712 1526.59 440.764 1526.23 439.42 1526.23C438.076 1526.23 437.092 1526.6 436.468 1527.35C435.868 1528.09 435.556 1529.32 435.532 1531.02H443.128ZM457.485 1522.99C458.757 1522.99 460.257 1523.16 461.985 1523.5L462.885 1523.68L462.741 1526.77C460.845 1526.58 459.441 1526.48 458.529 1526.48C456.705 1526.48 455.481 1526.89 454.857 1527.71C454.233 1528.52 453.921 1530.06 453.921 1532.32C453.921 1534.57 454.221 1536.13 454.821 1537C455.421 1537.86 456.669 1538.29 458.565 1538.29L462.777 1538L462.885 1541.14C460.461 1541.57 458.637 1541.78 457.413 1541.78C454.677 1541.78 452.745 1541.05 451.617 1539.59C450.513 1538.1 449.961 1535.68 449.961 1532.32C449.961 1528.96 450.549 1526.57 451.725 1525.15C452.901 1523.71 454.821 1522.99 457.485 1522.99ZM470.603 1541.39H466.679V1515.9H470.603V1524.32C472.379 1523.44 474.023 1522.99 475.535 1522.99C477.935 1522.99 479.567 1523.68 480.431 1525.04C481.319 1526.39 481.763 1528.62 481.763 1531.74V1541.39H477.839V1531.85C477.839 1529.9 477.635 1528.52 477.227 1527.71C476.819 1526.89 475.955 1526.48 474.635 1526.48C473.483 1526.48 472.331 1526.68 471.179 1527.06L470.603 1527.28V1541.39ZM506.733 1527.1C503.901 1526.71 501.849 1526.52 500.577 1526.52C499.305 1526.52 498.417 1526.68 497.913 1526.99C497.433 1527.28 497.193 1527.74 497.193 1528.39C497.193 1529.04 497.457 1529.5 497.985 1529.76C498.537 1530.02 499.809 1530.34 501.801 1530.7C503.817 1531.03 505.245 1531.57 506.085 1532.32C506.925 1533.06 507.345 1534.38 507.345 1536.28C507.345 1538.17 506.733 1539.56 505.509 1540.45C504.309 1541.34 502.545 1541.78 500.217 1541.78C498.753 1541.78 496.905 1541.58 494.673 1541.17L493.557 1540.99L493.701 1537.72C496.581 1538.1 498.657 1538.29 499.929 1538.29C501.201 1538.29 502.101 1538.14 502.629 1537.82C503.181 1537.51 503.457 1537 503.457 1536.28C503.457 1535.56 503.193 1535.06 502.665 1534.8C502.161 1534.51 500.925 1534.21 498.957 1533.9C497.013 1533.56 495.585 1533.05 494.673 1532.35C493.761 1531.66 493.305 1530.38 493.305 1528.54C493.305 1526.69 493.929 1525.31 495.177 1524.4C496.449 1523.48 498.069 1523.03 500.037 1523.03C501.573 1523.03 503.457 1523.22 505.689 1523.6L506.805 1523.82L506.733 1527.1ZM511.116 1541.39V1523.39H515.04V1541.39H511.116ZM511.116 1520.33V1516.19H515.04V1520.33H511.116ZM523.724 1541.39H519.8V1523.39H523.688V1524.5C525.392 1523.5 526.952 1522.99 528.368 1522.99C530.456 1522.99 531.98 1523.58 532.94 1524.76C535.124 1523.58 537.296 1522.99 539.456 1522.99C541.616 1522.99 543.14 1523.66 544.028 1525.01C544.916 1526.33 545.36 1528.57 545.36 1531.74V1541.39H541.472V1531.85C541.472 1529.9 541.268 1528.52 540.86 1527.71C540.476 1526.89 539.66 1526.48 538.412 1526.48C537.332 1526.48 536.168 1526.72 534.92 1527.2L534.308 1527.46C534.5 1527.94 534.596 1529.47 534.596 1532.06V1541.39H530.708V1532.14C530.708 1530 530.516 1528.52 530.132 1527.71C529.748 1526.89 528.908 1526.48 527.612 1526.48C526.412 1526.48 525.296 1526.72 524.264 1527.2L523.724 1527.42V1541.39ZM549.964 1549.13V1523.39H553.852V1524.5C555.508 1523.5 557.056 1522.99 558.496 1522.99C560.872 1522.99 562.612 1523.72 563.716 1525.19C564.82 1526.63 565.372 1529.06 565.372 1532.5C565.372 1535.9 564.736 1538.3 563.464 1539.7C562.216 1541.09 560.164 1541.78 557.308 1541.78C556.324 1541.78 555.184 1541.68 553.888 1541.46V1549.13H549.964ZM557.812 1526.48C556.684 1526.48 555.556 1526.74 554.428 1527.24L553.888 1527.49V1538.11C554.848 1538.3 555.904 1538.4 557.056 1538.4C558.688 1538.4 559.816 1537.93 560.44 1537C561.064 1536.06 561.376 1534.46 561.376 1532.21C561.376 1528.39 560.188 1526.48 557.812 1526.48ZM569.516 1541.39V1515.9H573.44V1541.39H569.516ZM591.221 1538.15L592.229 1538.04L592.301 1540.96C589.565 1541.51 587.141 1541.78 585.029 1541.78C582.365 1541.78 580.445 1541.05 579.269 1539.59C578.117 1538.12 577.541 1535.78 577.541 1532.57C577.541 1526.18 580.145 1522.99 585.353 1522.99C590.393 1522.99 592.913 1525.74 592.913 1531.24L592.661 1534.04H581.501C581.525 1535.53 581.849 1536.62 582.473 1537.32C583.097 1538.02 584.261 1538.36 585.965 1538.36C587.669 1538.36 589.421 1538.29 591.221 1538.15ZM589.061 1531.02C589.061 1529.24 588.773 1528.01 588.197 1527.31C587.645 1526.59 586.697 1526.23 585.353 1526.23C584.009 1526.23 583.025 1526.6 582.401 1527.35C581.801 1528.09 581.489 1529.32 581.465 1531.02H589.061ZM597.875 1544.3H613.283V1547.65H597.875V1544.3Z" fill="#393939"/>
</g>
<rect x="1" y="0.5" width="886" height="1575.89" rx="7.5" stroke="black"/>
<defs>
<clipPath id="clip0_2001_69">
<rect x="0.5" width="887" height="1576.89" rx="8" fill="white"/>
</clipPath>
</defs>
</svg>
